<svg id="visual" viewBox="0 0 900 600" width="900" height="600" xmlns="http://www.w3.org/2000/svg" xmlns:xlink="http://www.w3.org/1999/xlink" version="1.1"><rect x="0" y="0" width="900" height="600" fill="#97d3cc"></rect><path d="M0 429L7.8 427.2C15.7 425.3 31.3 421.7 47.2 422.7C63 423.7 79 429.3 94.8 432C110.7 434.7 126.3 434.3 142 431.8C157.7 429.3 173.3 424.7 189.2 419.5C205 414.3 221 408.7 236.8 406.7C252.7 404.7 268.3 406.3 284.2 406.3C300 406.3 316 404.7 331.8 406.5C347.7 408.3 363.3 413.7 379 414.2C394.7 414.7 410.3 410.3 426.2 408.7C442 407 458 408 473.8 408.7C489.7 409.3 505.3 409.7 521 410.7C536.7 411.7 552.3 413.3 568.2 416.3C584 419.3 600 423.7 615.8 421.8C631.7 420 647.3 412 663.2 413C679 414 695 424 710.8 424.7C726.7 425.3 742.3 416.7 758 414C773.7 411.3 789.3 414.7 805.2 415.8C821 417 837 416 852.8 415.5C868.7 415 884.3 415 892.2 415L900 415L900 601L892.2 601C884.3 601 868.7 601 852.8 601C837 601 821 601 805.2 601C789.3 601 773.7 601 758 601C742.3 601 726.7 601 710.8 601C695 601 679 601 663.2 601C647.3 601 631.7 601 615.8 601C600 601 584 601 568.2 601C552.3 601 536.7 601 521 601C505.3 601 489.7 601 473.8 601C458 601 442 601 426.2 601C410.3 601 394.7 601 379 601C363.3 601 347.7 601 331.8 601C316 601 300 601 284.2 601C268.3 601 252.7 601 236.8 601C221 601 205 601 189.2 601C173.3 601 157.7 601 142 601C126.3 601 110.7 601 94.8 601C79 601 63 601 47.2 601C31.3 601 15.7 601 7.8 601L0 601Z" fill="#3e1823" stroke-linecap="round" stroke-linejoin="miter"></path></svg>